<?xml version="1.0" encoding="UTF-8" standalone="no"?>
<svg
   viewBox="0 0 129.67999 32.330002"
   version="1.1"
   id="svg14"
   sodipodi:docname="comunica-word.svg"
   width="129.67999"
   height="32.330002"
   inkscape:version="1.4.3 (0d15f75042, 2025-12-25)"
   xmlns:inkscape="http://www.inkscape.org/namespaces/inkscape"
   xmlns:sodipodi="http://sodipodi.sourceforge.net/DTD/sodipodi-0.dtd"
   xmlns="http://www.w3.org/2000/svg"
   xmlns:svg="http://www.w3.org/2000/svg"
   xmlns:rdf="http://www.w3.org/1999/02/22-rdf-syntax-ns#"
   xmlns:cc="http://creativecommons.org/ns#"
   xmlns:dc="http://purl.org/dc/elements/1.1/">
  <defs
     id="defs14" />
  <sodipodi:namedview
     id="namedview14"
     pagecolor="#ffffff"
     bordercolor="#000000"
     borderopacity="0.25"
     inkscape:showpageshadow="2"
     inkscape:pageopacity="0.0"
     inkscape:pagecheckerboard="0"
     inkscape:deskcolor="#d1d1d1"
     inkscape:zoom="1.6"
     inkscape:cx="39.0625"
     inkscape:cy="-16.25"
     inkscape:window-width="1920"
     inkscape:window-height="1011"
     inkscape:window-x="0"
     inkscape:window-y="0"
     inkscape:window-maximized="1"
     inkscape:current-layer="svg14" />
  <title
     id="title1">Asset 9</title>
  <metadata
     id="metadata14">
    <rdf:RDF>
      <cc:Work
         rdf:about="">
        <dc:title>Asset 9</dc:title>
      </cc:Work>
    </rdf:RDF>
  </metadata>
  <path
     d="m 13.14,24.76 v 2.07 q 0,5.49 -5.18,5.49 H 5.18 Q 0,32.32 0,26.83 V 5.5 Q 0,0.01 5.18,0.01 h 2.79 q 5.18,0 5.18,5.49 V 9.15 H 8.82 V 5.82 A 1.69,1.69 0 0 0 6.88,3.93 H 6.03 q -1.71,0 -1.71,1.89 v 20.71 q 0,1.89 1.71,1.89 h 1.08 q 1.71,0 1.71,-1.89 v -1.76 z"
     style="fill:#9c0510"
     id="path7" />
  <path
     d="m 21.52,32.32 q -5.22,0 -5.22,-5.49 V 5.54 Q 16.3,0 21.48,0 h 4.14 q 5.18,0 5.18,5.54 v 21.29 q 0,5.49 -5.22,5.49 z m 1,-3.92 h 2.2 q 1.71,0 1.71,-1.89 V 5.81 A 1.69,1.69 0 0 0 24.5,3.92 h -2 a 1.67,1.67 0 0 0 -1.89,1.89 v 20.71 a 1.69,1.69 0 0 0 1.94,1.89 z"
     style="fill:#9c0510"
     id="path8" />
  <path
     d="m 43.39,19 4,-19 h 4.77 v 32.32 h -4.32 l 0.45,-21.15 -3.24,15.3 h -3.33 l -3.24,-15.3 0.49,21.15 H 34.61 V 0.01 h 4.77 z"
     style="fill:#9c0510"
     id="path9" />
  <path
     d="m 70.26,0.01 v 26.2 q 0,6.12 -5.22,6.12 h -3.65 q -5.18,0 -5.18,-6.17 V 0.01 h 4.32 V 26.3 q 0,2.12 1.89,2.12 h 1.76 q 1.75,0 1.75,-2.12 V 0.01 Z"
     style="fill:#9c0510"
     id="path10" />
  <path
     d="M 83.27,15.63 V 0.01 h 4.32 V 32.33 H 83.27 V 25.89 L 78.63,11.17 V 32.32 H 74.31 V 0.01 h 4.32 z"
     style="fill:#9c0510"
     id="path11" />
  <path
     d="M 91.64,32.32 V 0.01 h 4.33 v 32.32 z"
     style="fill:#9c0510"
     id="path12" />
  <path
     d="m 112.97,24.76 v 2.07 q 0,5.49 -5.18,5.49 h -2.82 q -5.18,0 -5.18,-5.49 V 5.5 q 0,-5.49 5.18,-5.49 h 2.79 q 5.18,0 5.18,5.49 v 3.65 h -4.32 V 5.82 a 1.69,1.69 0 0 0 -1.94,-1.89 h -0.85 q -1.71,0 -1.71,1.89 v 20.71 q 0,1.89 1.71,1.89 h 1.08 q 1.71,0 1.71,-1.89 v -1.76 z"
     style="fill:#9c0510"
     id="path13" />
  <path
     d="m 120.4,32.32 h -4.32 V 5.54 Q 116.08,0 121.26,0 h 3.24 q 5.18,0 5.18,5.54 v 26.78 h -4.32 V 20.49 h -5 z m 5,-15.75 V 5.81 a 1.67,1.67 0 0 0 -1.89,-1.89 h -1.17 a 1.67,1.67 0 0 0 -1.89,1.89 v 10.76 z"
     style="fill:#9c0510"
     id="path14" />
</svg>
