<?xml version="1.0" encoding="UTF-8" standalone="no"?>
<svg
   viewBox="0 0 130 138.7"
   version="1.1"
   id="svg14"
   sodipodi:docname="comunica-logo.svg"
   width="130"
   height="138.7"
   inkscape:version="1.4.3 (0d15f75042, 2025-12-25)"
   xmlns:inkscape="http://www.inkscape.org/namespaces/inkscape"
   xmlns:sodipodi="http://sodipodi.sourceforge.net/DTD/sodipodi-0.dtd"
   xmlns="http://www.w3.org/2000/svg"
   xmlns:svg="http://www.w3.org/2000/svg"
   xmlns:rdf="http://www.w3.org/1999/02/22-rdf-syntax-ns#"
   xmlns:cc="http://creativecommons.org/ns#"
   xmlns:dc="http://purl.org/dc/elements/1.1/">
  <defs
     id="defs14" />
  <sodipodi:namedview
     id="namedview14"
     pagecolor="#ffffff"
     bordercolor="#000000"
     borderopacity="0.25"
     inkscape:showpageshadow="2"
     inkscape:pageopacity="0.0"
     inkscape:pagecheckerboard="0"
     inkscape:deskcolor="#d1d1d1"
     inkscape:zoom="3.2"
     inkscape:cx="54.53125"
     inkscape:cy="116.25"
     inkscape:window-width="1920"
     inkscape:window-height="1011"
     inkscape:window-x="0"
     inkscape:window-y="0"
     inkscape:window-maximized="1"
     inkscape:current-layer="svg14" />
  <title
     id="title1">Asset 9</title>
  <metadata
     id="metadata14">
    <rdf:RDF>
      <cc:Work
         rdf:about="">
        <dc:title>Asset 9</dc:title>
      </cc:Work>
    </rdf:RDF>
  </metadata>
  <rect
     x="0"
     y="70.549995"
     width="47.970001"
     height="47.970001"
     style="fill:#9c0510"
     id="rect2" />
  <path
     d="M 122,118.52 H 82 v -48 h 48 v 40 a 8,8 0 0 1 -8,8 z"
     style="fill:#9c0510"
     id="path2" />
  <path
     d="M 129.67,48 H 0 V 8 A 8,8 0 0 1 8,0 h 113.67 a 8,8 0 0 1 8,8 z"
     style="fill:#9c0510"
     id="path3" />
  <rect
     x="81.800003"
     y="51.919998"
     width="47.970001"
     height="14.83"
     style="fill:#9c0510"
     id="rect3" />
  <rect
     x="0"
     y="51.919998"
     width="47.970001"
     height="14.83"
     style="fill:#9c0510"
     id="rect4" />
  <rect
     x="52.080002"
     y="70.830002"
     width="26.030001"
     height="47.970001"
     style="fill:#9c0510"
     id="rect5" />
  <path
     d="m 121.77,138.7 h -32 a 8,8 0 0 1 -8,-8 v -8.15 h 48 v 8.15 a 8,8 0 0 1 -8,8 z"
     style="fill:#9c0510"
     id="path5" />
  <path
     d="M 40,138.7 H 8 a 8,8 0 0 1 -8,-8 v -8.15 h 48 v 8.15 a 8,8 0 0 1 -8,8 z"
     style="fill:#9c0510"
     id="path6" />
</svg>
