<?xml version="1.0" encoding="UTF-8" standalone="no"?>
<svg
   fill="none"
   viewBox="0 0 24 24"
   stroke-width="1.5"
   stroke="currentColor"
   class="size-6"
   version="1.1"
   id="svg1"
   sodipodi:docname="pencil-path.svg"
   inkscape:version="1.4.3 (0d15f75042, 2025-12-25)"
   inkscape:export-filename="pencil.png"
   inkscape:export-xdpi="4096"
   inkscape:export-ydpi="4096"
   xmlns:inkscape="http://www.inkscape.org/namespaces/inkscape"
   xmlns:sodipodi="http://sodipodi.sourceforge.net/DTD/sodipodi-0.dtd"
   xmlns="http://www.w3.org/2000/svg"
   xmlns:svg="http://www.w3.org/2000/svg">
  <defs
     id="defs1" />
  <sodipodi:namedview
     id="namedview1"
     pagecolor="#ffffff"
     bordercolor="#000000"
     borderopacity="0.25"
     inkscape:showpageshadow="2"
     inkscape:pageopacity="0.0"
     inkscape:pagecheckerboard="0"
     inkscape:deskcolor="#d1d1d1"
     inkscape:zoom="13.287715"
     inkscape:cx="18.212311"
     inkscape:cy="14.750467"
     inkscape:window-width="1920"
     inkscape:window-height="1011"
     inkscape:window-x="0"
     inkscape:window-y="0"
     inkscape:window-maximized="1"
     inkscape:current-layer="svg1" />
  <path
     stroke-linecap="round"
     stroke-linejoin="round"
     d="m 17.29805,3.8034919 1.844707,-1.8458001 a 2.0505518,2.0505517 0 1 1 2.899918,2.8999181 L 6.3304113,20.569873 a 4.9206754,4.9206754 0 0 1 -2.0743382,1.235636 l -2.936003,0.874787 0.8747867,-2.936003 A 4.9206754,4.9206754 0 0 1 3.4304931,17.669955 L 17.299145,3.8034919 Z m 0,0 2.884608,2.8846093"
     id="path1"
     style="stroke-width:1.64022" />
  <path
     style="font-size:12.0471px;font-family:'Nothing You Could Do';-inkscape-font-specification:'Nothing You Could Do';letter-spacing:0.470588px;word-spacing:0px;fill:#000000;stroke:#000000;stroke-width:0.564705"
     d="M 3.2588263,11.352972 Q 3.1411789,11.294148 2.9764724,11.117677 2.8235307,10.941205 2.6823538,10.717675 2.5411768,10.494145 2.4235294,10.247085 2.3176466,9.988261 2.2823524,9.7764955 2.2588229,9.5529654 2.3176466,9.4117884 q 0.070589,-0.1529417 0.282354,-0.1882359 0.011765,0.1647064 0.035294,0.4235308 0.023529,0.2588244 0.1058827,0.5058837 0.082353,0.24706 0.2352949,0.447061 0.1529417,0.188236 0.4235309,0.211765 0.7647085,0.05882 1.3176516,-0.247059 Q 5.2823627,10.247085 5.6941288,9.7059071 6.1058949,9.1647287 6.3882488,8.4706087 6.6706027,7.7647239 6.8823682,7.0353097 7.1058983,6.3058954 7.2823695,5.6235401 7.4588407,4.9411849 7.6470767,4.4353008 7.7647241,4.0000052 7.6353119,3.8588282 7.5058997,3.7058865 7.2235458,3.729416 6.9411919,3.7529455 6.5529553,3.8941225 6.1764834,4.0235347 5.8000115,4.1647116 5.4235396,4.2941238 5.0941267,4.3647123 4.7647138,4.423536 4.5882427,4.3058886 4.341183,4.1411821 4.4235362,3.9882404 4.5058894,3.823534 4.8117728,3.682357 5.1176562,3.5294153 5.6000108,3.4000031 6.0941302,3.2705909 6.6470732,3.1529434 7.2117811,3.035296 7.7882536,2.941178 8.3764909,2.8352953 8.882375,2.7647068 9.3882591,2.6941183 9.764731,2.6470594 q 0.388237,-0.047059 0.541178,-0.070588 0.200001,-0.023529 0.552943,-0.058824 0.352943,-0.047059 0.71765,-0.094118 0.364707,-0.047059 0.647061,-0.070588 0.282354,-0.035294 0.341178,-0.035294 0.22353,-0.011765 0.552943,-0.023529 0.341177,-0.011765 0.658825,-0.011765 0.317649,0 0.552943,0.011765 0.235295,0.011765 0.235295,0.023529 l 0.129413,0.3882366 q -0.317649,0.023529 -0.858827,0.047059 -0.541178,0.011765 -1.188239,0.047059 -0.647061,0.035294 -1.341181,0.1058827 -0.69412,0.058824 -1.294122,0.1764712 Q 9.4117886,3.1882377 8.9529635,3.3647089 8.4941384,3.5294153 8.3059024,3.776475 8.2117845,4.0470642 8.0823723,4.5764777 7.9529601,5.1058913 7.7647241,5.7882466 7.5764882,6.4588371 7.3294285,7.2235456 7.0941336,7.9764894 6.7882502,8.6941389 6.4941315,9.4117884 6.1294244,10.03532 5.7647173,10.647087 5.3176569,11.047088 4.8823613,11.435325 4.3647125,11.541207 3.8588284,11.658855 3.2588263,11.352972 Z"
     id="text1"
     aria-label="J" />
  <path
     style="font-size:8.29553px;font-family:'Nothing You Could Do';-inkscape-font-specification:'Nothing You Could Do';letter-spacing:0.324044px;word-spacing:0px;fill:#000000;stroke:#000000;stroke-width:0.388853"
     d="m 11.194427,21.643277 q -0.04051,-0.121516 0.0162,-0.210628 0.05671,-0.09721 0.170123,-0.162022 0.502269,-0.251135 0.980234,-0.421258 0.477965,-0.178224 0.939728,-0.348347 0.469864,-0.178225 0.931627,-0.388853 0.461763,-0.21873 0.939728,-0.558976 1.061244,-0.615684 1.628322,-1.150357 0.567077,-0.534673 0.753402,-0.964032 0.186326,-0.437459 0.04861,-0.761503 -0.137719,-0.332146 -0.477965,-0.534673 -0.340247,-0.202528 -0.834414,-0.267337 -0.486066,-0.07291 -1.012638,0.0081 -0.526572,0.08101 -1.02884,0.324045 -0.502268,0.234932 -0.866818,0.656189 -0.0081,0.0162 -0.0243,0.05671 -0.0162,0.0405 -0.0324,0.08911 -0.0081,0.0405 -0.0243,0.08911 -0.0081,0.04051 -0.0081,0.04861 -0.243033,0.583279 -0.461763,1.004537 -0.210629,0.413156 -0.405055,0.802009 -0.186326,0.380752 -0.356449,0.818211 -0.170123,0.429359 -0.324044,1.045043 -0.14582,0.04861 -0.210629,-0.0081 -0.05671,-0.05671 -0.06481,-0.170124 -0.0081,-0.121516 0.0243,-0.275437 0.0405,-0.153921 0.08911,-0.299741 0.04861,-0.14582 0.09721,-0.267336 0.04861,-0.121517 0.06481,-0.170124 0.06481,-0.186325 0.202528,-0.477965 0.137718,-0.299741 0.291639,-0.623785 0.153921,-0.324044 0.29164,-0.623785 0.137719,-0.299741 0.210629,-0.486066 -0.07291,-0.234932 -0.0324,-0.413156 0.04861,-0.186326 0.162022,-0.332145 0.113416,-0.153921 0.275438,-0.275438 0.162022,-0.129618 0.324044,-0.251134 0.461763,-0.340247 0.996436,-0.526572 0.534673,-0.186325 1.085548,-0.202528 0.558976,-0.0243 1.109851,0.137719 0.550875,0.162022 1.036941,0.526572 0.388853,0.324044 0.453662,0.704796 0.07291,0.380752 -0.105314,0.785807 -0.178225,0.396954 -0.558976,0.81011 -0.372651,0.413157 -0.87492,0.810111 -0.502268,0.396954 -1.093649,0.769605 -0.583279,0.364549 -1.17466,0.680492 -0.583279,0.307842 -1.142255,0.550875 -0.550875,0.234933 -0.988335,0.372651 -0.429359,0.137719 -0.704796,0.170123 -0.275438,0.0243 -0.315943,-0.08911 z m 7.542128,0 q -0.04051,-0.0162 -0.194427,-0.08911 -0.14582,-0.07291 -0.275437,-0.170123 -0.129618,-0.09721 -0.186326,-0.202528 -0.04861,-0.105314 0.105315,-0.178224 0.08911,0.08101 0.243033,0.194427 0.162022,0.113415 0.307842,0.170123 0.445561,0.0243 0.866818,0.0081 0.421257,-0.0243 0.818211,-0.105314 0.405056,-0.08911 0.777706,-0.259236 0.380752,-0.178224 0.737201,-0.461763 0.396954,-0.332145 0.51847,-0.607582 0.129618,-0.283539 0.04861,-0.518471 -0.07291,-0.243033 -0.315943,-0.445561 -0.234932,-0.210629 -0.567077,-0.388853 -0.324044,-0.186325 -0.696695,-0.340246 -0.372651,-0.162022 -0.712897,-0.307842 -0.340247,-0.153921 -0.615684,-0.299741 -0.275438,-0.14582 -0.405055,-0.299741 -0.03241,-0.137719 0.137718,-0.324044 0.170124,-0.186325 0.469864,-0.380752 0.299741,-0.202527 0.688594,-0.396954 0.388853,-0.202528 0.793908,-0.36455 0.413157,-0.162022 0.793909,-0.275437 0.388853,-0.113416 0.680492,-0.137719 0.29164,-0.0324 0.445561,0.04051 0.153921,0.07291 0.105314,0.275437 -0.05671,0.0081 -0.291639,0.07291 -0.234932,0.06481 -0.575179,0.162022 -0.332145,0.09721 -0.729099,0.226831 -0.388853,0.129618 -0.769605,0.275438 -0.380752,0.137718 -0.704796,0.283538 -0.324044,0.14582 -0.51037,0.283539 -0.186325,0.137719 -0.210628,0.251134 -0.0162,0.113416 0.21873,0.194427 1.182761,0.356448 1.855152,0.761503 0.680493,0.396954 0.955931,0.810111 0.275437,0.405055 0.210628,0.802009 -0.06481,0.396954 -0.356448,0.7372 -0.283539,0.340247 -0.745302,0.607583 -0.461763,0.259236 -0.980233,0.405055 -0.51037,0.14582 -1.028841,0.153921 -0.510369,0.0081 -0.907323,-0.162022 z"
     id="text2"
     aria-label="DS" />
</svg>
