<?xml version="1.0" encoding="UTF-8" standalone="no"?>
<!-- Created with Inkscape (http://www.inkscape.org/) -->

<svg
   version="1.1"
   id="svg1"
   width="24"
   height="24"
   viewBox="0 0 4.9655171 4.9655171"
   sodipodi:docname="qr-paper.svg"
   inkscape:version="1.4.3 (0d15f75042, 2025-12-25)"
   xmlns:inkscape="http://www.inkscape.org/namespaces/inkscape"
   xmlns:sodipodi="http://sodipodi.sourceforge.net/DTD/sodipodi-0.dtd"
   xmlns="http://www.w3.org/2000/svg"
   xmlns:svg="http://www.w3.org/2000/svg">
  <defs
     id="defs1" />
  <sodipodi:namedview
     id="namedview1"
     pagecolor="#49f24b"
     bordercolor="#000000"
     borderopacity="0.25"
     inkscape:showpageshadow="2"
     inkscape:pageopacity="0.0"
     inkscape:pagecheckerboard="0"
     inkscape:deskcolor="#d1d1d1"
     inkscape:zoom="27.275862"
     inkscape:cx="10.980405"
     inkscape:cy="10.962073"
     inkscape:window-width="1920"
     inkscape:window-height="1011"
     inkscape:window-x="0"
     inkscape:window-y="0"
     inkscape:window-maximized="1"
     inkscape:current-layer="svg1" />
  <path
     style="fill:#ffffff;stroke:none;stroke-width:0.0428062;fill-opacity:1"
     d="M 0,0 V 1.1985731 H 1.1985731 V 0 H 0 M 1.5410225,0 V 0.34244945 H 1.3697978 V 1.3697978 H 1.5410225 V 0.6848989 H 1.7122473 V 1.5410225 H 1.5410225 V 1.7122473 H 1.883472 V 2.2259214 H 1.5410225 V 2.0546967 H 1.7122473 V 1.883472 H 1.3697978 V 1.7122473 H 1.0273484 V 1.883472 H 0.6848989 V 1.7122473 H 0.34244945 V 1.883472 H 0.51367418 V 2.0546967 H 0 V 2.3971462 H 0.17122473 V 2.7395956 H 0 V 3.5957193 H 0.17122473 V 3.0820451 H 0.34244945 V 3.5957193 H 1.3697978 V 3.766944 H 1.5410225 V 3.9381687 H 1.3697978 V 4.6230676 H 1.5410225 V 4.4518429 H 1.7122473 V 4.7942923 H 1.883472 V 4.9655171 H 2.0546967 V 4.6230676 H 1.883472 V 4.1093934 H 1.7122473 V 3.9381687 H 1.883472 V 3.766944 H 2.0546967 V 3.5957193 H 1.883472 V 3.766944 H 1.5410225 V 3.2532698 H 1.1985731 V 3.0820451 H 1.3697978 V 2.9108203 H 1.1985731 V 2.7395956 H 1.3697978 V 2.5683709 H 1.5410225 V 2.7395956 H 1.7122473 V 2.9108203 H 1.883472 V 3.4244945 H 2.0546967 V 3.0820451 H 2.2259214 V 3.4244945 H 2.3971462 V 3.5957193 H 2.7395956 V 3.766944 H 2.5683709 V 3.9381687 H 2.3971462 V 4.1093934 H 2.5683709 V 4.2806182 H 2.2259214 V 3.9381687 H 2.0546967 V 4.2806182 H 2.2259214 V 4.9655171 H 2.3971462 V 4.7942923 H 2.5683709 V 4.9655171 H 2.7395956 V 4.7942923 H 2.9108203 V 4.9655171 H 3.0820451 V 4.7942923 H 2.9108203 V 4.6230676 H 3.4244945 V 4.7942923 H 3.2532698 V 4.9655171 H 3.4244945 V 4.7942923 H 3.5957193 V 4.6230676 H 3.4244945 V 4.2806182 H 3.9381687 V 4.4518429 H 3.766944 V 4.6230676 H 3.9381687 V 4.4518429 H 4.1093934 V 4.6230676 H 4.6230676 V 4.7942923 H 4.1093934 V 4.9655171 H 4.6230676 V 4.7942923 H 4.7942923 V 4.4518429 H 4.9655171 V 4.1093934 H 4.7942923 V 3.9381687 H 4.6230676 V 3.766944 H 4.9655171 V 3.4244945 H 4.7942923 V 3.2532698 H 4.6230676 V 2.7395956 H 4.7942923 V 2.5683709 H 4.6230676 V 2.3971462 H 4.2806182 V 2.2259214 H 4.6230676 V 2.0546967 H 4.7942923 V 1.883472 H 4.6230676 V 2.0546967 H 4.4518429 V 1.883472 H 3.9381687 V 1.5410225 H 4.1093934 V 1.7122473 H 4.2806182 V 1.5410225 H 4.6230676 V 1.3697978 H 3.766944 V 1.5410225 H 3.5957193 V 1.3697978 H 3.4244945 V 1.1985731 H 3.5957193 V 0.34244945 H 3.4244945 V 0.6848989 H 3.2532698 V 0.85612363 H 2.9108203 V 0.6848989 H 3.0820451 V 0.51367418 H 2.9108203 V 0.34244945 H 2.7395956 V 0.17122473 H 2.3971462 V 0 H 2.0546967 V 0.17122473 H 1.883472 V 0.34244945 H 2.0546967 V 0.51367418 H 2.2259214 V 0.6848989 H 2.7395956 V 0.85612363 H 2.5683709 V 1.0273484 H 2.3971462 V 0.85612363 H 2.0546967 V 0.6848989 H 1.883472 V 0.51367418 H 1.5410225 V 0.34244945 H 1.7122473 V 0 H 1.5410225 M 3.0820451,0 V 0.17122473 H 3.5957193 V 0 H 3.0820451 M 3.766944,0 V 1.1985731 H 4.9655171 V 0 H 3.766944 M 1.0273484,0.17122473 V 1.0273484 H 0.17122473 V 0.17122473 H 1.0273484 m 1.198573,0 V 0.34244945 H 2.5683709 V 0.51367418 H 2.2259214 V 0.34244945 H 2.0546967 V 0.17122473 h 0.1712247 m 2.5683709,0 V 1.0273484 H 3.9381687 V 0.17122473 H 4.7942923 M 0.34244945,0.34244945 V 0.85612363 H 0.85612363 V 0.34244945 H 0.34244945 m 3.76694395,0 V 0.85612363 H 4.6230676 V 0.34244945 H 4.1093934 M 3.4244945,0.85612363 V 1.1985731 H 3.2532698 V 0.85612363 H 3.4244945 M 2.0546967,1.0273484 V 1.3697978 H 1.883472 V 1.0273484 h 0.1712247 m 0.3424495,0 V 1.1985731 H 2.5683709 V 1.0273484 H 2.7395956 V 1.1985731 H 2.5683709 V 1.3697978 H 2.2259214 V 1.0273484 h 0.1712248 m 0.6848989,0 V 1.3697978 H 2.9108203 V 1.5410225 H 2.7395956 V 1.7122473 H 2.3971462 V 2.0546967 H 2.9108203 V 1.883472 H 3.0820451 V 1.7122473 H 3.4244945 V 1.883472 H 3.0820451 V 2.0546967 H 3.2532698 V 2.2259214 H 3.0820451 V 2.0546967 H 2.9108203 V 2.2259214 H 2.7395956 V 2.3971462 H 2.3971462 V 2.0546967 H 2.2259214 V 1.883472 H 2.0546967 V 1.7122473 H 1.883472 V 1.5410225 H 2.7395956 V 1.3697978 H 2.9108203 V 1.0273484 H 3.0820451 M 0,1.3697978 V 1.5410225 H 0.17122473 V 1.3697978 H 0 m 0.34244945,0 V 1.5410225 H 1.1985731 V 1.3697978 H 0.34244945 m 3.08204505,0 V 1.5410225 H 3.2532698 V 1.3697978 H 3.4244945 M 4.7942923,1.5410225 V 1.7122473 H 4.9655171 V 1.5410225 H 4.7942923 M 3.766944,1.7122473 V 1.883472 H 3.9381687 V 2.2259214 H 4.1093934 V 2.0546967 H 4.2806182 V 2.2259214 H 4.1093934 V 2.3971462 H 4.2806182 V 2.5683709 H 4.6230676 V 2.7395956 H 4.2806182 V 2.9108203 H 4.4518429 V 3.2532698 H 4.6230676 V 3.4244945 H 4.4518429 V 3.5957193 H 4.2806182 V 2.9108203 H 4.1093934 V 3.4244945 H 3.9381687 V 3.2532698 H 3.766944 V 3.4244945 H 3.5957193 V 3.2532698 H 3.766944 V 3.0820451 H 3.9381687 V 2.9108203 H 3.5957193 V 2.7395956 H 3.4244945 V 2.9108203 H 3.0820451 V 2.7395956 H 2.5683709 V 2.9108203 H 2.7395956 V 3.0820451 H 2.3971462 V 2.9108203 H 2.2259214 V 2.7395956 H 2.0546967 V 2.5683709 H 2.3971462 V 2.7395956 H 2.5683709 V 2.5683709 H 3.0820451 V 2.7395956 H 3.2532698 V 2.3971462 H 3.5957193 V 2.5683709 H 3.9381687 V 2.2259214 H 3.4244945 V 2.0546967 H 3.5957193 V 1.7122473 H 3.766944 M 1.1985731,1.883472 V 2.0546967 H 1.3697978 V 2.2259214 H 1.5410225 V 2.3971462 H 1.3697978 V 2.5683709 H 1.1985731 V 2.7395956 H 1.0273484 V 2.9108203 H 1.1985731 V 3.0820451 H 0.85612363 V 2.7395956 H 0.6848989 V 3.0820451 H 0.34244945 V 2.9108203 H 0.51367418 V 2.7395956 H 0.6848989 V 2.5683709 H 0.34244945 V 2.3971462 H 0.17122473 V 2.2259214 H 0.34244945 V 2.3971462 H 0.6848989 V 2.2259214 H 0.51367418 V 2.0546967 H 0.6848989 V 2.2259214 H 0.85612363 V 2.3971462 H 1.0273484 V 2.2259214 H 1.1985731 V 2.0546967 H 1.0273484 V 1.883472 h 0.1712247 m 0,0.3424494 V 2.3971462 H 1.0273484 V 2.5683709 H 0.85612363 V 2.3971462 H 0.6848989 V 2.5683709 H 0.85612363 V 2.7395956 H 1.0273484 V 2.5683709 H 1.1985731 V 2.3971462 H 1.3697978 V 2.2259214 H 1.1985731 m 1.0273483,0 V 2.3971462 H 1.883472 V 2.5683709 H 1.7122473 V 2.3971462 H 1.883472 V 2.2259214 h 0.3424494 m 2.5683709,0 V 2.3971462 H 4.9655171 V 2.2259214 H 4.7942923 M 4.1093934,2.5683709 V 2.7395956 H 3.9381687 V 2.9108203 H 4.1093934 V 2.7395956 H 4.2806182 V 2.5683709 H 4.1093934 M 4.7942923,2.9108203 V 3.0820451 H 4.9655171 V 2.9108203 H 4.7942923 M 3.0820451,3.0820451 V 3.2532698 H 3.2532698 V 3.0820451 H 3.4244945 V 3.4244945 H 3.2532698 V 3.5957193 H 3.4244945 V 3.766944 H 3.2532698 V 3.9381687 H 3.4244945 V 4.2806182 H 3.2532698 V 4.4518429 H 2.9108203 V 4.2806182 H 2.7395956 V 4.4518429 H 2.5683709 V 4.6230676 H 2.3971462 V 4.4518429 H 2.5683709 V 4.2806182 H 2.7395956 V 4.1093934 H 2.9108203 V 3.9381687 H 2.7395956 V 3.766944 H 2.9108203 V 3.5957193 H 2.7395956 V 3.4244945 H 2.9108203 V 3.0820451 H 3.0820451 M 0.6848989,3.2532698 V 3.4244945 H 0.51367418 V 3.2532698 H 0.6848989 m 0.5136742,0 V 3.4244945 H 0.85612363 V 3.2532698 H 1.1985731 m 1.3697978,0 V 3.4244945 H 2.3971462 V 3.2532698 H 2.5683709 M 2.9108203,3.4244945 V 3.5957193 H 3.0820451 V 3.4244945 H 2.9108203 M 4.1093934,3.5957193 V 4.1093934 H 3.5957193 V 3.5957193 H 4.1093934 M 0,3.766944 V 4.9655171 H 1.1985731 V 3.766944 H 0 m 3.766944,0 V 3.9381687 H 3.9381687 V 3.766944 H 3.766944 M 1.0273484,3.9381687 V 4.7942923 H 0.17122473 V 3.9381687 H 1.0273484 m 2.0546967,0 V 4.1093934 H 2.9108203 V 4.2806182 H 3.0820451 V 4.1093934 H 3.2532698 V 3.9381687 H 3.0820451 m 1.5410225,0 V 4.1093934 H 4.4518429 V 4.2806182 H 4.2806182 V 4.4518429 H 4.1093934 V 4.2806182 H 4.2806182 V 3.9381687 H 4.6230676 M 0.34244945,4.1093934 V 4.6230676 H 0.85612363 V 4.1093934 H 0.34244945 M 1.3697978,4.7942923 V 4.9655171 H 1.5410225 V 4.7942923 H 1.3697978 m 2.3971462,0 V 4.9655171 H 3.9381687 V 4.7942923 Z"
     id="path1" />
</svg>
